<?xml version="1.0" standalone="no"?>
<!DOCTYPE svg PUBLIC "-//W3C//DTD SVG 20010904//EN"
 "http://www.w3.org/TR/2001/REC-SVG-20010904/DTD/svg10.dtd">
<svg version="1.0" xmlns="http://www.w3.org/2000/svg"
 width="611.000000pt" height="611.000000pt" viewBox="0 0 611.000000 611.000000"
 preserveAspectRatio="xMidYMid meet">
<metadata>
Created by potrace 1.14, written by Peter Selinger 2001-2017
</metadata>
<g transform="translate(0.000000,611.000000) scale(0.100000,-0.100000)"
fill="#000000" stroke="none">
<path d="M2890 5889 c-983 -49 -1877 -624 -2350 -1512 -138 -259 -239 -566
-292 -889 -19 -115 -22 -173 -23 -423 0 -255 3 -307 23 -431 52 -326 152 -627
299 -904 66 -124 219 -360 234 -360 26 0 344 110 528 183 568 224 1148 574
1606 967 858 737 1460 1631 1794 2664 l42 129 -23 25 c-43 47 -263 183 -423
262 -447 220 -908 314 -1415 289z"/>
<path d="M5440 4574 c0 -6 7 -33 15 -60 42 -139 60 -294 59 -514 0 -224 -15
-346 -64 -521 -169 -612 -608 -1085 -1268 -1369 -347 -149 -641 -232 -1542
-434 -184 -41 -407 -91 -495 -111 -429 -96 -1255 -318 -1255 -337 0 -12 153
-173 249 -262 369 -340 848 -584 1345 -686 357 -73 776 -73 1132 0 679 139
1281 520 1699 1075 311 414 500 895 555 1415 15 134 15 446 0 581 -29 278
-106 574 -215 829 -62 144 -214 424 -215 394z"/>
</g>
</svg>
