<?xml version="1.0" standalone="no"?>
<!DOCTYPE svg PUBLIC "-//W3C//DTD SVG 20010904//EN"
 "http://www.w3.org/TR/2001/REC-SVG-20010904/DTD/svg10.dtd">
<svg version="1.0" xmlns="http://www.w3.org/2000/svg"
 width="524.000000pt" height="524.000000pt" viewBox="0 0 524.000000 524.000000"
 preserveAspectRatio="xMidYMid meet">
<metadata>
Created by potrace 1.14, written by Peter Selinger 2001-2017
</metadata>
<g transform="translate(0.000000,524.000000) scale(0.100000,-0.100000)"
fill="#000000" stroke="none">
<path d="M1570 5230 c-39 -6 -52 -34 -38 -85 4 -16 8 -52 8 -79 0 -47 -35
-122 -125 -266 -41 -65 -126 -245 -131 -275 -7 -48 -12 -534 -19 -1740 -9
-1796 -9 -1835 -20 -1835 -5 0 -3 -5 5 -10 11 -7 11 -10 2 -10 -9 0 -10 -5 -2
-19 7 -13 7 -22 0 -26 -7 -4 -7 -13 0 -26 8 -14 7 -19 -1 -19 -9 0 -9 -3 0
-14 9 -10 9 -16 1 -21 -8 -5 -8 -11 1 -21 9 -11 8 -14 -2 -14 -11 0 -11 -2 1
-10 8 -5 11 -10 5 -10 -12 0 -13 -209 -1 -228 4 -7 2 -12 -5 -12 -8 0 -8 -4
-2 -12 6 -7 13 -25 17 -41 11 -47 70 -100 175 -157 62 -33 104 -62 107 -75 11
-34 44 -71 83 -93 53 -30 225 -73 341 -86 25 -3 63 -8 85 -10 188 -23 299 -29
540 -29 127 0 273 3 325 6 176 12 265 19 271 23 3 2 33 6 66 9 115 11 231 39
311 77 52 24 69 39 96 82 28 43 46 58 109 90 98 49 152 96 178 154 21 45 21
57 25 1046 8 1849 9 1876 19 1876 6 0 3 5 -5 10 -8 5 -10 10 -4 10 8 0 9 11 4
34 -4 18 -3 41 2 50 5 9 5 16 1 16 -4 0 -6 115 -3 255 3 167 2 255 -5 255 -7
0 -7 3 0 8 6 4 10 89 9 222 0 173 -4 228 -18 280 -10 36 -19 72 -21 80 -9 45
-69 170 -140 290 -76 129 -76 126 -64 265 4 52 -1 63 -34 69 -72 14 -2061 28
-2147 16z"/>
</g>
</svg>
